# xmcd
#
# Track frame offsets: 
#        150
#        18882
#        39964
#        68954
#        94754
#        114316
#        133723
#        163183
#        185720
#        203370
#        223731
#        251773
#
# Disc length: 3980 seconds
#
# Revision: 1
# Processed by: cddbd v1.5.2PL0 Copyright (c) Steve Scherf et al.
# Submitted via: ExactAudioCopy v0.99pb4
#
DISCID=a50f8a0c
DTITLE=Nash Didan - Voices of the Ancient World
DYEAR=2006
DGENRE=Ethnic
TTITLE0=Window of Dreams
TTITLE1=Eden Garden
TTITLE2=Together
TTITLE3=Passion
TTITLE4=Missa Creole
TTITLE5=Worldwide
TTITLE6=Dream
TTITLE7=Accomplishment
TTITLE8=Our People
TTITLE9=Magical Desert
TTITLE10=Stranger
TTITLE11=Prayer
EXTD=
EXTT0=
EXTT1=
EXTT2=
EXTT3=
EXTT4=
EXTT5=
EXTT6=
EXTT7=
EXTT8=
EXTT9=
EXTT10=
EXTT11=
PLAYORDER=
